<?xml version="1.0" encoding="UTF-8"?>
<svg id="Livello_2" data-name="Livello 2" xmlns="http://www.w3.org/2000/svg" viewBox="0 0 657.93 178.19">
  <defs>
    <style>
      .cls-1 {
        fill-rule: evenodd;
      }
    </style>
  </defs>
  <g id="Livello_1-2" data-name="Livello 1">
    <polygon class="cls-1" points="209.26 0 196.99 21.24 156.33 91.66 143.99 113.05 106.38 178.19 42.54 178.19 133.07 21.38 112 21.38 21.46 178.19 0 178.19 102.88 0 166.8 0 76.22 156.89 97.29 156.89 187.87 0 209.26 0"/>
    <path class="cls-1" d="M230.35,0l-102.88,178.19h20.95l41.77-72.35h21.81l-41.76,72.35h20.95L294.08,0h-63.72ZM224.35,84.46h-21.81l36.42-63.08h21.81l-36.42,63.08Z"/>
    <polygon class="cls-1" points="380.04 0 377.93 3.66 367.7 21.38 324.49 21.38 288.01 84.57 331.21 84.57 318.87 105.95 289.51 156.81 277.16 178.19 213.01 178.19 213.01 178.19 225.36 156.81 268.56 156.81 297.92 105.95 254.72 105.95 267.06 84.57 304.1 20.43 315.89 0 380.04 0"/>
    <path class="cls-1" d="M401.88,0l-102.88,178.19h20.95l41.77-72.35h21.81l-41.76,72.35h20.95L465.61,0h-63.72ZM395.88,84.46h-21.81l36.42-63.08h21.81l-36.42,63.08Z"/>
    <polygon class="cls-1" points="573.01 0 470.14 178.19 448.75 178.19 539.29 21.38 496.75 21.38 509.09 0 573.01 0"/>
    <path class="cls-1" d="M636.54,0l-.09.16h-21.07L615.47,0h-21.38l-102.88,178.19h63.84L657.93,0h-21.39ZM545.96,156.88h-21.07l78.13-135.34h21.07l-78.13,135.34Z"/>
  </g>
</svg>